<?xml version="1.0" encoding="utf-8"?>
<?xml-stylesheet type="text/xsl" href="rss1.xsl"?>
<rss version="2.0" xmlns:atom="http://www.w3.org/2005/Atom" xmlns:content="http://purl.org/rss/1.0/modules/content/" xmlns:dc="http://purl.org/dc/elements/1.1/" xmlns:media="http://search.yahoo.com/mrss/">
<channel>
 <title>Getty</title>
 <link>http://www.gettyimg.com/</link>
 <atom:link href="http://www.gettyimg.com/" rel="self" type="application/rss+xml" />

 
                <item>
                <title><![CDATA[【Apple Music】WEB-RiP - Cardi B - Enough (Miami) [Apple HD Music Video]]]></title>
                <link><![CDATA[https://sharemania.us/threads/cardi-b-enough-miami-apple-hd-music-video.242334/]]></link>
                <description><![CDATA[<article>
<blockquote class="messageText SelectQuoteContainer ugc baseHtml">
<span style="font-size: 22px"><b>Cardi B - Enough (Miami) [Apple HD Music Video]</b></span><br>
<br>
<img src="https://imgur.com/BbamVBH.jpg" class="bbCodeImage LbImage" alt="[​IMG]" data-url="https://imgur.com/BbamVBH.jpg" style=""><br>
<br>
<div class="bbCodeBlock bbCodeCode">
<div class="type">Code:</div>
<pre>General
Format                         : MPEG-4
Codec ID                       : M4V  (isom/iso4/M4V /mp42)
File size                      : 130 MiB
Duration                       : 2 min 37 s
Overall bit rate mode          : Variable
Overall bit rate               : 6 894 kb/s
Movie name                     : Enough (Miami)
Performer                      : Cardi B
Genre                          : Hip-Hop/Rap
ContentType                    : Music Video
Recorded date                  : UTC 2024-03-15 07:00:00
Encoded date                   : UTC 2024-03-19 00:29:52
Tagged date                    : UTC 2024-03-19 00:29:52
Copyright                      : ℗ © 2024 Atlantic Recording Corporation
Cover                          : Yes
Rating                         : Explicit
GenreID                        : 1618
AppleStoreCountry              : Canada
AlbumTitleID                   : 956078923
AppleStoreCatalogID            : 1736620835

Video
ID                             : 2
Format                         : AVC
Format/Info                    : Advanced Video Codec
Format profile                 : High@L4
Format settings                : CABAC / 4 Ref Frames
Format settings, CABAC         : Yes
Format settings, Reference fra : 4 frames
Codec ID                       : avc1
Codec ID/Info                  : Advanced Video Coding
Duration                       : 2 min 37 s
Bit rate                       : 6 620 kb/s
Maximum bit rate               : 14.6 Mb/s
Width                          : 1 572 pixels
Height                         : 1 080 pixels
Display aspect ratio           : 3:2
Frame rate mode                : Constant
Frame rate                     : 23.976 (24000/1001) FPS
Color space                    : YUV
Chroma subsampling             : 4:2:0
Bit depth                      : 8 bits
Scan type                      : Progressive
Bits/(Pixel*Frame)             : 0.163
Stream size                    : 125 MiB (96%)
Title                          : Core Media Video
Encoded date                   : UTC 2024-03-19 00:08:27
Tagged date                    : UTC 2024-03-19 00:29:58
Color range                    : Limited
Color primaries                : BT.709
Transfer characteristics       : BT.709
Matrix coefficients            : BT.709
Codec configuration box        : avcC

Audio
ID                             : 1
Format                         : AAC LC
Format/Info                    : Advanced Audio Codec Low Complexity
Codec ID                       : mp4a-40-2
Duration                       : 2 min 37 s
Duration_LastFrame             : -19 ms
Bit rate mode                  : Variable
Bit rate                       : 265 kb/s
Maximum bit rate               : 373 kb/s
Channel(s)                     : 2 channels
Channel layout                 : L R
Sampling rate                  : 48.0 kHz
Frame rate                     : 46.875 FPS (1024 SPF)
Compression mode               : Lossy
Stream size                    : 4.93 MiB (4%)
Title                          : Core Media Audio
Encoded date                   : UTC 2024-03-19 00:08:25
Tagged date                    : UTC 2024-03-19 00:29:58
</pre>
</div>
<div class="bbCodeBlock bbCodeVfcHH HiddenContent">
<div class="attribution type">Hidden Content:</div>
<blockquote>You must reply before you can see the hidden data contained here.</blockquote>
</div>
<div class="messageTextEndMarker">&nbsp;</div>
</blockquote>
</article>]]></description>
                <author><![CDATA[abby0511]]></author>
                </item>

                
                <item>
                <title><![CDATA[【Cinema Center】MOVIE - Immaculate (2024) 1080p AMZN WEB-DL DDP5.1 H.264 - FLUX]]></title>
                <link><![CDATA[https://sharemania.us/threads/immaculate-2024-1080p-amzn-web-dl-ddp5-1-h-264-flux.242333/]]></link>
                <description><![CDATA[<article>
<blockquote class="messageText SelectQuoteContainer ugc baseHtml">
<div style="text-align: center"><img src="https://m.media-amazon.com/images/M/MV5BNmYyZGQzM2YtYTY3My00NGE5LWIzMmQtMDIxMTFhMGIxZDhhXkEyXkFqcGdeQXVyMTY0Njc2MTUx._V1_FMjpg_UY2048_.jpg" class="bbCodeImage LbImage" alt="[​IMG]" data-url="https://m.media-amazon.com/images/M/MV5BNmYyZGQzM2YtYTY3My00NGE5LWIzMmQtMDIxMTFhMGIxZDhhXkEyXkFqcGdeQXVyMTY0Njc2MTUx._V1_FMjpg_UY2048_.jpg" style=""> <br>
<br>
Cecilia, a woman of devout faith, is warmly welcomed to the picture-perfect Italian countryside where she is offered a new role at an illustrious convent. But it becomes clear to Cecilia that her new home harbors dark and horrifying secrets.<br>
<br>
Download:<br>
<br>
<div class="bbCodeBlock bbCodeVfcHH HiddenContent">
<div class="attribution type">Hidden Content:</div>
<blockquote>You must either reply or click 'Like' to see the hidden information contained here.</blockquote>
</div></div>
<div class="messageTextEndMarker">&nbsp;</div>
</blockquote>
</article>]]></description>
                <author><![CDATA[sunnyillion]]></author>
                </item>

                
                <item>
                <title><![CDATA[【Cinema Center】MOVIE - The Greatest Hits (2024) 1080p DSNP WEB-DL DDP5.1 H.264 - FLUX]]></title>
                <link><![CDATA[https://sharemania.us/threads/the-greatest-hits-2024-1080p-dsnp-web-dl-ddp5-1-h-264-flux.242335/]]></link>
                <description><![CDATA[<article>
<blockquote class="messageText SelectQuoteContainer ugc baseHtml">
THANK YOU!
<div class="messageTextEndMarker">&nbsp;</div>
</blockquote>
</article>]]></description>
                <author><![CDATA[sunnyillion]]></author>
                </item>

                </channel></rss>